<svg width="432" height="432" viewBox="0 0 432 432" fill="none" xmlns="http://www.w3.org/2000/svg">
<g clip-path="url(#clip0_32_1396)">
<g filter="url(#filter0_d_32_1396)">
<path d="M140.801 118.391C161.853 100.238 188.703 90.2122 216.5 90.125C273.158 90.125 320.191 132.25 325.309 186.57C358.84 191.309 385 219.386 385 253.844C385 291.672 353.448 321.812 315.22 321.812H127.637C83.9748 321.812 48 287.396 48 244.26C48 207.127 74.6651 176.376 109.966 168.583C112.978 150.406 124.668 132.292 140.801 118.391Z" fill="#D9CCE3"/>
</g>
</g>
<path d="M280.461 207.954L225.046 152.539C222.687 150.18 219.593 149 216.5 149C213.407 149 210.313 150.18 207.954 152.539L196.995 163.498L210.566 177.068C215.065 174.421 220.934 174.987 224.8 178.85C228.662 182.712 229.228 188.581 226.581 193.083L239.914 206.416C244.413 203.769 250.282 204.335 254.147 208.198C258.732 212.782 258.732 220.215 254.147 224.8C249.563 229.384 242.129 229.384 237.545 224.8C233.683 220.937 233.117 215.068 235.764 210.566L222.431 197.233C221.48 197.791 220.477 198.202 219.435 198.469V234.522C224.488 235.831 228.239 240.383 228.239 245.848C228.239 252.331 222.983 257.587 216.5 257.587C210.017 257.587 204.761 252.331 204.761 245.848C204.761 240.383 208.512 235.831 213.565 234.522V198.472C211.602 197.964 209.735 196.99 208.2 195.455C204.338 191.593 203.772 185.723 206.419 181.221L192.846 167.648L152.539 207.954C147.82 212.673 147.82 220.324 152.539 225.043L207.954 280.458C210.313 282.82 213.407 284 216.5 284C219.593 284 222.687 282.82 225.046 280.461L280.461 225.046C285.18 220.327 285.18 212.673 280.461 207.954Z" fill="black"/>
<defs>
<filter id="filter0_d_32_1396" x="42" y="88.125" width="349" height="243.688" filterUnits="userSpaceOnUse" color-interpolation-filters="sRGB">
<feFlood flood-opacity="0" result="BackgroundImageFix"/>
<feColorMatrix in="SourceAlpha" type="matrix" values="0 0 0 0 0 0 0 0 0 0 0 0 0 0 0 0 0 0 127 0" result="hardAlpha"/>
<feOffset dy="4"/>
<feGaussianBlur stdDeviation="3"/>
<feComposite in2="hardAlpha" operator="out"/>
<feColorMatrix type="matrix" values="0 0 0 0 0 0 0 0 0 0 0 0 0 0 0 0 0 0 0.25 0"/>
<feBlend mode="normal" in2="BackgroundImageFix" result="effect1_dropShadow_32_1396"/>
<feBlend mode="normal" in="SourceGraphic" in2="effect1_dropShadow_32_1396" result="shape"/>
</filter>
<clipPath id="clip0_32_1396">
<rect width="337" height="337" fill="white" transform="translate(48 48)"/>
</clipPath>
</defs>
</svg>
