<svg xmlns="http://www.w3.org/2000/svg" viewBox="0 0 1497 650" width="1497" height="650"><defs></defs><g transform="matrix(1,0,0,1,-635,-215)">
<g>
	<g>
		<path d="M846.930787,409.187408C878.375061,382.072551 918.480282,367.097505 960,366.967301 C1044.628724,366.967301 1114.880813,429.888419 1122.525421,511.025217 C1172.609893,518.103451 1211.684472,560.041408 1211.684472,611.510498 C1211.684472,668.013293 1164.555992,713.032699 1107.455735,713.032699 C1107.455735,713.032699 827.267881,713.032699 827.267881,713.032699 C762.050237,713.032699 708.315528,661.626331 708.315528,597.195104 C708.315528,541.730425 748.144558,495.798235 800.87253,484.157868 C805.371331,457.007457 822.831968,429.951302 846.930787,409.187408 C846.930787,409.187408 846.930787,409.187408 846.930787,409.187408 Z" fill="#dacce3"/>
	</g>
	<g>
		<path d="M1060.307042,527.189956C1060.307042,527.189956 977.215053,444.098496 977.215053,444.098496 C973.676952,440.560434 969.038846,438.79141 964.400591,438.79141 C959.762336,438.79141 955.12423,440.560434 951.586123,444.098496 C951.586123,444.098496 935.154377,460.530166 935.154377,460.530166 C935.154377,460.530166 955.502691,480.878481 955.502691,480.878481 C962.248732,476.909132 971.049913,477.75842 976.845441,483.549606 C982.636473,489.340638 983.485921,498.141825 979.516569,504.892356 C979.516569,504.892356 999.508306,524.884099 999.508306,524.884099 C1006.254341,520.914753 1015.055077,521.764041 1020.850467,527.555221 C1027.725453,534.428863 1027.725453,545.57549 1020.850467,552.449275 C1013.976979,559.322911 1002.830799,559.322911 995.957014,552.449275 C990.165971,546.658094 989.316535,537.856913 993.285886,531.106524 C993.285886,531.106524 973.294138,511.114782 973.294138,511.114782 C971.868313,511.950873 970.363313,512.56685 968.801181,512.967355 C968.801181,512.967355 968.801181,567.028298 968.801181,567.028298 C976.378967,568.990929 982.002805,575.816289 982.002805,584.010045 C982.002805,593.731293 974.121392,601.612408 964.400591,601.612408 C954.679795,601.612408 946.798371,593.731293 946.798371,584.010045 C946.798371,575.816289 952.42222,568.990929 960,567.028298 C960,567.028298 960,512.971702 960,512.971702 C957.056122,512.210433 954.257245,510.749517 951.95574,508.448007 C946.164703,502.65682 945.315415,493.855639 949.284613,487.105256 C949.284613,487.105256 928.932101,466.752593 928.932101,466.752593 C928.932101,466.752593 868.494662,527.189956 868.494662,527.189956 C861.418553,534.266022 861.418553,545.738325 868.494662,552.81454 C868.494662,552.81454 951.586123,635.906368 951.586123,635.906368 C955.12423,639.448096 959.762336,641.217438 964.400591,641.217438 C969.038846,641.217438 973.676952,639.448096 977.215053,635.910875 C977.215053,635.910875 1060.307042,552.818887 1060.307042,552.818887 C1067.382947,545.742833 1067.382947,534.266022 1060.307042,527.189956 C1060.307042,527.189956 1060.307042,527.189956 1060.307042,527.189956 Z" fill="#000000"/>
	</g>
	<g>
		<path d="M635,215L 1285,215 L 1285,865 L 635,865 L 635,215 Z" fill="#376a80" fill-opacity="0"/>
	</g>
	<g>
		<path d="M1431.622267,607.692261Q1408.897391,607.692261 1392.068119,598.044908 Q1375.238848,588.397555 1365.96667,570.817934 Q1356.694491,553.238312 1356.694491,529.441508 Q1356.694491,505.859089 1366.717019,488.386661 Q1376.739547,470.914232 1394.372765,461.266879 Q1412.005983,451.619526 1434.838052,451.619526 Q1446.843647,451.619526 1457.723717,454.084961 Q1468.603788,456.550395 1476.536056,460.302144 Q1473.963428,483.455791 1473.963428,483.455791 Q1465.602389,479.811236 1455.847843,477.452994 Q1446.093297,475.094752 1435.052437,475.094752 Q1417.472816,475.094752 1406.163974,482.27667 Q1394.855133,489.458589 1389.388299,501.678569 Q1383.921466,513.89855 1383.921466,529.227122 Q1383.921466,545.198851 1389.441895,557.633218 Q1394.962325,570.067584 1406.163974,577.14231 Q1417.365623,584.217035 1434.40928,584.217035 Q1439.125764,584.217035 1445.021369,583.466686 Q1450.916974,582.716336 1456.598193,581.215636 Q1456.598193,550.558492 1456.598193,550.558492 C1456.598193,550.558492 1434.945244,550.558492 1434.945244,550.558492 C1434.945244,550.558492 1434.945244,529.441508 1434.945244,529.441508 C1434.945244,529.441508 1481.466925,529.441508 1481.466925,529.441508 C1481.466925,529.441508 1481.466925,596.329823 1481.466925,596.329823 Q1473.320271,601.046307 1460.349941,604.369284 Q1447.379611,607.692261 1431.622267,607.692261 Q1431.622267,607.692261 1431.622267,607.692261 ZM1503.119873,604.690862C1503.119873,604.690862 1503.119873,498.248399 1503.119873,498.248399 C1503.119873,498.248399 1527.023871,498.248399 1527.023871,498.248399 C1527.023871,498.248399 1527.023871,604.690862 1527.023871,604.690862 C1527.023871,604.690862 1503.119873,604.690862 1503.119873,604.690862 C1503.119873,604.690862 1503.119873,604.690862 1503.119873,604.690862 ZM1503.119873,479.382464C1503.119873,479.382464 1503.119873,454.620925 1503.119873,454.620925 C1503.119873,454.620925 1527.023871,454.620925 1527.023871,454.620925 C1527.023871,454.620925 1527.023871,479.382464 1527.023871,479.382464 C1527.023871,479.382464 1503.119873,479.382464 1503.119873,479.382464 C1503.119873,479.382464 1503.119873,479.382464 1503.119873,479.382464 ZM1587.909388,606.834719Q1577.833264,606.834719 1571.616081,602.868585 Q1565.398897,598.902451 1562.504692,592.738864 Q1559.610486,586.575277 1559.610486,579.82213 Q1559.610486,517.650299 1559.610486,517.650299 C1559.610486,517.650299 1543.317178,517.650299 1543.317178,517.650299 C1543.317178,517.650299 1545.461034,498.248399 1545.461034,498.248399 C1545.461034,498.248399 1559.610486,498.248399 1559.610486,498.248399 C1559.610486,498.248399 1559.610486,473.808438 1559.610486,473.808438 C1559.610486,473.808438 1583.514483,471.343003 1583.514483,471.343003 C1583.514483,471.343003 1583.514483,498.248399 1583.514483,498.248399 C1583.514483,498.248399 1608.597601,498.248399 1608.597601,498.248399 C1608.597601,498.248399 1608.597601,517.650299 1608.597601,517.650299 C1608.597601,517.650299 1583.514483,517.650299 1583.514483,517.650299 C1583.514483,517.650299 1583.514483,568.566885 1583.514483,568.566885 Q1583.514483,577.463888 1584.586411,581.376426 Q1585.658339,585.288963 1589.51728,586.307295 Q1593.376222,587.325627 1601.951647,587.325627 Q1608.383215,587.325627 1608.383215,587.325627 C1608.383215,587.325627 1606.346552,606.834719 1606.346552,606.834719 C1606.346552,606.834719 1587.909388,606.834719 1587.909388,606.834719 C1587.909388,606.834719 1587.909388,606.834719 1587.909388,606.834719 ZM1627.570729,604.690862C1627.570729,604.690862 1627.570729,454.620925 1627.570729,454.620925 C1627.570729,454.620925 1652.76104,454.620925 1652.76104,454.620925 C1652.76104,454.620925 1720.506897,557.097254 1720.506897,557.097254 C1720.506897,557.097254 1720.506897,454.620925 1720.506897,454.620925 C1720.506897,454.620925 1745.482823,454.620925 1745.482823,454.620925 C1745.482823,454.620925 1745.482823,604.690862 1745.482823,604.690862 C1745.482823,604.690862 1724.79461,604.690862 1724.79461,604.690862 C1724.79461,604.690862 1652.439461,496.104543 1652.439461,496.104543 C1652.439461,496.104543 1652.439461,604.690862 1652.439461,604.690862 C1652.439461,604.690862 1627.570729,604.690862 1627.570729,604.690862 C1627.570729,604.690862 1627.570729,604.690862 1627.570729,604.690862 ZM1819.553056,606.834719Q1802.402206,606.834719 1790.343015,599.331222 Q1778.283823,591.827725 1771.905851,579.286166 Q1765.527879,566.744607 1765.527879,551.63042 Q1765.527879,536.516234 1771.905851,523.867482 Q1778.283823,511.21873 1790.343015,503.661637 Q1802.402206,496.104543 1819.553056,496.104543 Q1836.596713,496.104543 1848.709501,503.661637 Q1860.822289,511.21873 1867.200261,523.867482 Q1873.578234,536.516234 1873.578234,551.63042 Q1873.578234,566.744607 1867.200261,579.286166 Q1860.822289,591.827725 1848.709501,599.331222 Q1836.596713,606.834719 1819.553056,606.834719 Q1819.553056,606.834719 1819.553056,606.834719 ZM1819.553056,586.68247Q1833.702508,586.68247 1841.366794,577.088713 Q1849.03108,567.494956 1849.03108,551.63042 Q1849.03108,535.551498 1841.366794,525.904145 Q1833.702508,516.256792 1819.553056,516.256792 Q1805.403605,516.256792 1797.685722,525.904145 Q1789.96784,535.551498 1789.96784,551.63042 Q1789.96784,567.494956 1797.685722,577.088713 Q1805.403605,586.68247 1819.553056,586.68247 Q1819.553056,586.68247 1819.553056,586.68247 ZM1926.531483,606.834719Q1916.455359,606.834719 1910.238176,602.868585 Q1904.020993,598.902451 1901.126787,592.738864 Q1898.232581,586.575277 1898.232581,579.82213 Q1898.232581,517.650299 1898.232581,517.650299 C1898.232581,517.650299 1881.939273,517.650299 1881.939273,517.650299 C1881.939273,517.650299 1884.083129,498.248399 1884.083129,498.248399 C1884.083129,498.248399 1898.232581,498.248399 1898.232581,498.248399 C1898.232581,498.248399 1898.232581,473.808438 1898.232581,473.808438 C1898.232581,473.808438 1922.136578,471.343003 1922.136578,471.343003 C1922.136578,471.343003 1922.136578,498.248399 1922.136578,498.248399 C1922.136578,498.248399 1947.219696,498.248399 1947.219696,498.248399 C1947.219696,498.248399 1947.219696,517.650299 1947.219696,517.650299 C1947.219696,517.650299 1922.136578,517.650299 1922.136578,517.650299 C1922.136578,517.650299 1922.136578,568.566885 1922.136578,568.566885 Q1922.136578,577.463888 1923.208506,581.376426 Q1924.280434,585.288963 1928.139375,586.307295 Q1931.998317,587.325627 1940.573742,587.325627 Q1947.005311,587.325627 1947.005311,587.325627 C1947.005311,587.325627 1944.968647,606.834719 1944.968647,606.834719 C1944.968647,606.834719 1926.531483,606.834719 1926.531483,606.834719 C1926.531483,606.834719 1926.531483,606.834719 1926.531483,606.834719 ZM2015.179939,606.834719Q1996.099619,606.834719 1983.290078,599.116836 Q1970.480536,591.398954 1963.995371,578.696605 Q1957.510206,565.994257 1957.510206,550.772878 Q1957.510206,536.087462 1963.5666,523.706692 Q1969.622994,511.325923 1981.253414,503.876022 Q1992.883834,496.426122 2009.49872,496.426122 Q2024.076943,496.426122 2034.367453,502.321726 Q2044.657963,508.217331 2050.0712,518.561437 Q2055.484437,528.905544 2055.484437,542.197453 Q2055.484437,545.198851 2055.109262,548.468232 Q2054.734087,551.737613 2054.09093,555.167783 Q1982.271746,555.167783 1982.271746,555.167783 Q1983.772445,566.8518 1988.810507,573.71214 Q1993.84857,580.57248 2001.352067,583.627475 Q2008.855563,586.68247 2017.538181,586.68247 Q2026.113606,586.68247 2034.099471,584.59221 Q2042.085335,582.50195 2048.945675,578.857395 Q2050.767953,598.688065 2050.767953,598.688065 Q2044.657963,601.689464 2035.653767,604.262091 Q2026.64957,606.834719 2015.179939,606.834719 Q2015.179939,606.834719 2015.179939,606.834719 ZM1983.343674,538.874475C1983.343674,538.874475 2031.044476,538.874475 2031.044476,538.874475 Q2031.044476,533.086064 2028.847023,527.994405 Q2026.64957,522.902746 2021.87949,519.740558 Q2017.10941,516.57837 2009.391527,516.57837 Q1998.136282,516.57837 1991.865503,522.688361 Q1985.594723,528.798351 1983.343674,538.874475 Q1983.343674,538.874475 1983.343674,538.874475 Z" fill="#ffffff"/>
	</g>
	<g>
		<path d="M635,215L 2132.476974,215 L 2132.476974,865 L 635,865 L 635,215 Z" fill="#376a80" fill-opacity="0"/>
	</g>
</g></g></svg>